<svg width="40" height="40" viewBox="0 0 40 40" fill="none" xmlns="http://www.w3.org/2000/svg">
<path d="M3.33337 9.99999C3.33337 9.55797 3.50897 9.13404 3.82153 8.82148C4.13409 8.50892 4.55801 8.33333 5.00004 8.33333H35C35.4421 8.33333 35.866 8.50892 36.1786 8.82148C36.4911 9.13404 36.6667 9.55797 36.6667 9.99999C36.6667 10.442 36.4911 10.8659 36.1786 11.1785C35.866 11.4911 35.4421 11.6667 35 11.6667H5.00004C4.55801 11.6667 4.13409 11.4911 3.82153 11.1785C3.50897 10.8659 3.33337 10.442 3.33337 9.99999V9.99999ZM3.33337 20.0533C3.33337 19.6113 3.50897 19.1874 3.82153 18.8748C4.13409 18.5623 4.55801 18.3867 5.00004 18.3867H35C35.4421 18.3867 35.866 18.5623 36.1786 18.8748C36.4911 19.1874 36.6667 19.6113 36.6667 20.0533C36.6667 20.4954 36.4911 20.9193 36.1786 21.2318C35.866 21.5444 35.4421 21.72 35 21.72H5.00004C4.55801 21.72 4.13409 21.5444 3.82153 21.2318C3.50897 20.9193 3.33337 20.4954 3.33337 20.0533V20.0533ZM5.00004 28.44C4.55801 28.44 4.13409 28.6156 3.82153 28.9282C3.50897 29.2407 3.33337 29.6646 3.33337 30.1067C3.33337 30.5487 3.50897 30.9726 3.82153 31.2852C4.13409 31.5977 4.55801 31.7733 5.00004 31.7733H35C35.4421 31.7733 35.866 31.5977 36.1786 31.2852C36.4911 30.9726 36.6667 30.5487 36.6667 30.1067C36.6667 29.6646 36.4911 29.2407 36.1786 28.9282C35.866 28.6156 35.4421 28.44 35 28.44H5.00004Z" fill="#1B4896"/>
</svg>
