<svg width="32" height="32" viewBox="0 0 32 32" fill="none" xmlns="http://www.w3.org/2000/svg">
<path d="M12.5 27.5C12.948 28.942 14.338 30 16 30C17.663 30 19.052 28.942 19.5 27.5H12.5Z" fill="#E3B7AA"/>
<path d="M16 6.55C15.31 6.55 14.75 5.99 14.75 5.3V3.25C14.75 2.91848 14.8817 2.60054 15.1161 2.36612C15.3505 2.1317 15.6685 2 16 2C16.3315 2 16.6495 2.1317 16.8839 2.36612C17.1183 2.60054 17.25 2.91848 17.25 3.25V5.3C17.25 5.99 16.69 6.55 16 6.55Z" fill="#E3B7AA"/>
<path d="M27.6 22.843C26.64 22.07 26.06 20.916 25.82 19.693L24.09 10.793C23.32 6.85 19.94 4.01 16 4C12.06 4.01 8.68002 6.85 7.91002 10.793L6.18002 19.693C5.94002 20.916 5.36002 22.07 4.40002 22.843C3.96116 23.1989 3.60761 23.6487 3.36534 24.1592C3.12307 24.6697 2.99824 25.2279 3.00002 25.793V27.027C3.00002 27.569 3.43002 28 3.95002 28H28.05C28.58 28 29 27.569 29 27.027V25.793C29 24.589 28.45 23.535 27.6 22.843V22.843Z" fill="#1B4896"/>
</svg>
