<svg width="30" height="30" viewBox="0 0 30 30" fill="none" xmlns="http://www.w3.org/2000/svg">
<path d="M27.1757 25.7813C27.0956 25.9249 26.9782 26.0443 26.8359 26.1268C26.6936 26.2093 26.5316 26.2519 26.3671 26.25H3.63277C3.46829 26.2519 3.30635 26.2093 3.16403 26.1268C3.02172 26.0443 2.90431 25.9249 2.82418 25.7813C2.73829 25.64 2.69287 25.4778 2.69287 25.3125C2.69287 25.1472 2.73829 24.985 2.82418 24.8438C4.57348 21.8303 7.37351 19.5686 10.6875 18.4922C9.09901 17.5476 7.86461 16.1076 7.1739 14.3935C6.4832 12.6793 6.37439 10.7858 6.86419 9.00382C7.35399 7.22182 8.41532 5.64993 9.88511 4.52961C11.3549 3.4093 13.1519 2.80254 15 2.80254C16.848 2.80254 18.645 3.4093 20.1148 4.52961C21.5846 5.64993 22.6459 7.22182 23.1357 9.00382C23.6255 10.7858 23.5167 12.6793 22.826 14.3935C22.1353 16.1076 20.9009 17.5476 19.3125 18.4922C22.6264 19.5686 25.4264 21.8303 27.1757 24.8438C27.2616 24.985 27.307 25.1472 27.307 25.3125C27.307 25.4778 27.2616 25.64 27.1757 25.7813Z" fill="#184A2C"/>
</svg>
